<?xml version="1.0" encoding="UTF-8" standalone="no"?><svg xmlns="http://www.w3.org/2000/svg" xmlns:xlink="http://www.w3.org/1999/xlink" contentScriptType="application/ecmascript" contentStyleType="text/css" height="533px" preserveAspectRatio="none" style="width:421px;height:533px;" version="1.1" viewBox="0 0 421 533" width="421px" zoomAndPan="magnify"><defs><filter height="300%" id="f17f9xy3ch41kr" width="300%" x="-1" y="-1"><feGaussianBlur result="blurOut" stdDeviation="2.0"/><feColorMatrix in="blurOut" result="blurOut2" type="matrix" values="0 0 0 0 0 0 0 0 0 0 0 0 0 0 0 0 0 0 .4 0"/><feOffset dx="4.0" dy="4.0" in="blurOut2" result="blurOut3"/><feBlend in="SourceGraphic" in2="blurOut3" mode="normal"/></filter></defs><g><line style="stroke:#A80036;stroke-width:1.0;stroke-dasharray:5.0,5.0;" x1="63" x2="63" y1="40.2969" y2="489.8906"/><line style="stroke:#A80036;stroke-width:1.0;stroke-dasharray:5.0,5.0;" x1="358" x2="358" y1="40.2969" y2="489.8906"/><rect fill="#FEFECE" filter="url(#f17f9xy3ch41kr)" height="30.2969" style="stroke:#A80036;stroke-width:1.5;" width="30" x="46" y="5"/><text fill="#000000" font-family="sans-serif" font-size="14" lengthAdjust="spacingAndGlyphs" textLength="16" x="53" y="24.9951">R3</text><rect fill="#FEFECE" filter="url(#f17f9xy3ch41kr)" height="30.2969" style="stroke:#A80036;stroke-width:1.5;" width="30" x="46" y="488.8906"/><text fill="#000000" font-family="sans-serif" font-size="14" lengthAdjust="spacingAndGlyphs" textLength="16" x="53" y="508.8857">R3</text><rect fill="#FEFECE" filter="url(#f17f9xy3ch41kr)" height="30.2969" style="stroke:#A80036;stroke-width:1.5;" width="30" x="341" y="5"/><text fill="#000000" font-family="sans-serif" font-size="14" lengthAdjust="spacingAndGlyphs" textLength="16" x="348" y="24.9951">R1</text><rect fill="#FEFECE" filter="url(#f17f9xy3ch41kr)" height="30.2969" style="stroke:#A80036;stroke-width:1.5;" width="30" x="341" y="488.8906"/><text fill="#000000" font-family="sans-serif" font-size="14" lengthAdjust="spacingAndGlyphs" textLength="16" x="348" y="508.8857">R1</text><polygon fill="#A80036" points="346,67.4297,356,71.4297,346,75.4297,350,71.4297" style="stroke:#A80036;stroke-width:1.0;"/><line style="stroke:#A80036;stroke-width:1.0;" x1="63" x2="352" y1="71.4297" y2="71.4297"/><text fill="#000000" font-family="sans-serif" font-size="13" lengthAdjust="spacingAndGlyphs" textLength="271" x="70" y="66.3638">hello (estado DOWN) con IP multicast 224.0.0.5</text><path d="M48,84.4297 L48,109.4297 L372,109.4297 L372,94.4297 L362,84.4297 L48,84.4297 " fill="#FBFB77" filter="url(#f17f9xy3ch41kr)" style="stroke:#A80036;stroke-width:1.0;"/><path d="M362,84.4297 L362,94.4297 L372,94.4297 L362,84.4297 " fill="#FBFB77" style="stroke:#A80036;stroke-width:1.0;"/><text fill="#000000" font-family="sans-serif" font-size="13" lengthAdjust="spacingAndGlyphs" textLength="281" x="63" y="101.4966">R1 recibe mensaje de hello y pasa al estado INIT</text><polygon fill="#A80036" points="74,135.6953,64,139.6953,74,143.6953,70,139.6953" style="stroke:#A80036;stroke-width:1.0;"/><line style="stroke:#A80036;stroke-width:1.0;stroke-dasharray:2.0,2.0;" x1="68" x2="357" y1="139.6953" y2="139.6953"/><text fill="#000000" font-family="sans-serif" font-size="13" lengthAdjust="spacingAndGlyphs" textLength="151" x="80" y="134.6294">R1 manda su propio hello</text><path d="M34,152.6953 L34,177.6953 L383,177.6953 L383,162.6953 L373,152.6953 L34,152.6953 " fill="#FBFB77" filter="url(#f17f9xy3ch41kr)" style="stroke:#A80036;stroke-width:1.0;"/><path d="M373,152.6953 L373,162.6953 L383,162.6953 L373,152.6953 " fill="#FBFB77" style="stroke:#A80036;stroke-width:1.0;"/><text fill="#000000" font-family="sans-serif" font-size="13" lengthAdjust="spacingAndGlyphs" textLength="328" x="40" y="169.7622">R3 observa que en mismo hello esta su propio router-id,</text><path d="M48,191.8281 L48,216.8281 L372,216.8281 L372,201.8281 L362,191.8281 L48,191.8281 " fill="#FBFB77" filter="url(#f17f9xy3ch41kr)" style="stroke:#A80036;stroke-width:1.0;"/><path d="M362,191.8281 L362,201.8281 L372,201.8281 L362,191.8281 " fill="#FBFB77" style="stroke:#A80036;stroke-width:1.0;"/><text fill="#000000" font-family="sans-serif" font-size="13" lengthAdjust="spacingAndGlyphs" textLength="162" x="122.5" y="208.895">Se pasa al estado TWO-WAY</text><polygon fill="#A80036" points="346,243.0938,356,247.0938,346,251.0938,350,247.0938" style="stroke:#A80036;stroke-width:1.0;"/><line style="stroke:#A80036;stroke-width:1.0;stroke-dasharray:2.0,2.0;" x1="63" x2="352" y1="247.0938" y2="247.0938"/><text fill="#000000" font-family="sans-serif" font-size="13" lengthAdjust="spacingAndGlyphs" textLength="235" x="70" y="242.0278">Intercambia DBD (Database description)</text><polygon fill="#A80036" points="74,272.2266,64,276.2266,74,280.2266,70,276.2266" style="stroke:#A80036;stroke-width:1.0;"/><line style="stroke:#A80036;stroke-width:1.0;stroke-dasharray:2.0,2.0;" x1="68" x2="357" y1="276.2266" y2="276.2266"/><text fill="#000000" font-family="sans-serif" font-size="13" lengthAdjust="spacingAndGlyphs" textLength="100" x="80" y="271.1606">Intercambia DBD</text><path d="M48,289.2266 L48,314.2266 L372,314.2266 L372,299.2266 L362,289.2266 L48,289.2266 " fill="#FBFB77" filter="url(#f17f9xy3ch41kr)" style="stroke:#A80036;stroke-width:1.0;"/><path d="M362,289.2266 L362,299.2266 L372,299.2266 L362,289.2266 " fill="#FBFB77" style="stroke:#A80036;stroke-width:1.0;"/><text fill="#000000" font-family="sans-serif" font-size="13" lengthAdjust="spacingAndGlyphs" textLength="215" x="96" y="306.2935">DBD es un resumen de las tablas LSA</text><path d="M48,328.3594 L48,353.3594 L372,353.3594 L372,338.3594 L362,328.3594 L48,328.3594 " fill="#FBFB77" filter="url(#f17f9xy3ch41kr)" style="stroke:#A80036;stroke-width:1.0;"/><path d="M362,328.3594 L362,338.3594 L372,338.3594 L362,328.3594 " fill="#FBFB77" style="stroke:#A80036;stroke-width:1.0;"/><text fill="#000000" font-family="sans-serif" font-size="13" lengthAdjust="spacingAndGlyphs" textLength="173" x="117" y="345.4263">Se pasa al estado de EXSTART</text><path d="M19,367.4922 L19,392.4922 L398,392.4922 L398,377.4922 L388,367.4922 L19,367.4922 " fill="#FBFB77" filter="url(#f17f9xy3ch41kr)" style="stroke:#A80036;stroke-width:1.0;"/><path d="M388,367.4922 L388,377.4922 L398,377.4922 L388,367.4922 " fill="#FBFB77" style="stroke:#A80036;stroke-width:1.0;"/><text fill="#000000" font-family="sans-serif" font-size="13" lengthAdjust="spacingAndGlyphs" textLength="358" x="25" y="384.5591">Para actualizar la tabla Link-state se pasa al estado EXCHANGE</text><path d="M5,406.625 L5,431.625 L412,431.625 L412,416.625 L402,406.625 L5,406.625 " fill="#FBFB77" filter="url(#f17f9xy3ch41kr)" style="stroke:#A80036;stroke-width:1.0;"/><path d="M402,406.625 L402,416.625 L412,416.625 L402,406.625 " fill="#FBFB77" style="stroke:#A80036;stroke-width:1.0;"/><text fill="#000000" font-family="sans-serif" font-size="13" lengthAdjust="spacingAndGlyphs" textLength="386" x="11" y="423.6919">Cuando se completan las tablas se pasa al estado LOADING STATE</text><path d="M48,445.7578 L48,470.7578 L372,470.7578 L372,455.7578 L362,445.7578 L48,445.7578 " fill="#FBFB77" filter="url(#f17f9xy3ch41kr)" style="stroke:#A80036;stroke-width:1.0;"/><path d="M362,445.7578 L362,455.7578 L372,455.7578 L362,445.7578 " fill="#FBFB77" style="stroke:#A80036;stroke-width:1.0;"/><text fill="#000000" font-family="sans-serif" font-size="13" lengthAdjust="spacingAndGlyphs" textLength="297" x="55" y="462.8247">Cuando se completa la adyacencia pasamos a FULL</text><!--MD5=[cb14d27ad7fbe12209a729abbb35de88]
@startuml
R3 ->  R1       : hello (estado DOWN) con IP multicast 224.0.0.5
note over R1, R3: R1 recibe mensaje de hello y pasa al estado INIT
R1 - -> R3       : R1 manda su propio hello
note over R1, R3: R3 observa que en mismo hello esta su propio router-id, 
note over R1, R3: Se pasa al estado TWO-WAY
R3 - -> R1       : Intercambia DBD (Database description)
R1 - -> R3       : Intercambia DBD
note over R1, R3: DBD es un resumen de las tablas LSA
note over R1, R3: Se pasa al estado de EXSTART
note over R1, R3: Para actualizar la tabla Link-state se pasa al estado EXCHANGE
note over R1, R3: Cuando se completan las tablas se pasa al estado LOADING STATE
note over R1, R3: Cuando se completa la adyacencia pasamos a FULL
@enduml

PlantUML version 1.2020.22(Sun Dec 06 03:36:27 CST 2020)
(GPL source distribution)
Java Runtime: OpenJDK Runtime Environment
JVM: OpenJDK 64-Bit Server VM
Default Encoding: UTF-8
Language: en
Country: US
--></g></svg>